<mxfile host="app.diagrams.net" modified="2022-02-02T07:58:15.071Z" agent="5.0 (Macintosh; Intel Mac OS X 10_15_7) AppleWebKit/537.36 (KHTML, like Gecko) Chrome/97.0.4692.99 Safari/537.36" etag="_AGlUNNsUkSGIiwAWdPr" version="16.5.2" type="github">
  <diagram id="C5RBs43oDa-KdzZeNtuy" name="Page-1">
    <mxGraphModel dx="2125" dy="1890" grid="1" gridSize="10" guides="1" tooltips="1" connect="1" arrows="1" fold="1" page="1" pageScale="1" pageWidth="827" pageHeight="1169" math="0" shadow="0">
      <root>
        <mxCell id="WIyWlLk6GJQsqaUBKTNV-0" />
        <mxCell id="WIyWlLk6GJQsqaUBKTNV-1" parent="WIyWlLk6GJQsqaUBKTNV-0" />
        <mxCell id="WIyWlLk6GJQsqaUBKTNV-3" value="appmgr_main.py" style="rounded=1;whiteSpace=wrap;html=1;fontSize=12;glass=0;strokeWidth=1;shadow=0;" parent="WIyWlLk6GJQsqaUBKTNV-1" vertex="1">
          <mxGeometry x="-230" y="70" width="120" height="40" as="geometry" />
        </mxCell>
        <mxCell id="XO1icKDs8Vp44CP4bjN7-0" value="_main.py" style="rounded=1;whiteSpace=wrap;html=1;fontSize=12;glass=0;strokeWidth=1;shadow=0;" vertex="1" parent="WIyWlLk6GJQsqaUBKTNV-1">
          <mxGeometry x="40" y="70" width="120" height="40" as="geometry" />
        </mxCell>
        <mxCell id="XO1icKDs8Vp44CP4bjN7-1" value="" style="endArrow=classic;html=1;rounded=0;" edge="1" parent="WIyWlLk6GJQsqaUBKTNV-1">
          <mxGeometry width="50" height="50" relative="1" as="geometry">
            <mxPoint x="-110" y="89.5" as="sourcePoint" />
            <mxPoint x="40" y="90" as="targetPoint" />
          </mxGeometry>
        </mxCell>
        <mxCell id="XO1icKDs8Vp44CP4bjN7-2" value="Call the instance as a function)__call__" style="text;html=1;strokeColor=none;fillColor=none;align=center;verticalAlign=middle;whiteSpace=wrap;rounded=0;" vertex="1" parent="WIyWlLk6GJQsqaUBKTNV-1">
          <mxGeometry x="-60" y="40" width="60" height="30" as="geometry" />
        </mxCell>
        <mxCell id="XO1icKDs8Vp44CP4bjN7-5" value="&lt;pre style=&quot;border: 0px ; margin-top: 0px ; margin-bottom: 0px ; background-color: rgb(255 , 255 , 255)&quot;&gt;&lt;a href=&quot;https://wwwin-opengrok.cisco.com/xr-dev/s?defs=self&quot; class=&quot;intelliWindow-symbol&quot; style=&quot;color: rgb(32 , 48 , 162)&quot;&gt;self&lt;/a&gt;.&lt;a class=&quot;d intelliWindow-symbol&quot; href=&quot;https://wwwin-opengrok.cisco.com/xr-dev/xref/infra/appmgr/src/_mgr/_main.py?r=&amp;amp;mo=899&amp;amp;fi=47#_log&quot; style=&quot;color: rgb(153 , 0 , 153) ; font-weight: 700&quot;&gt;_log&lt;/a&gt; = &lt;a class=&quot;d intelliWindow-symbol&quot; href=&quot;https://wwwin-opengrok.cisco.com/xr-dev/xref/infra/appmgr/src/_mgr/_main.py?r=&amp;amp;mo=899&amp;amp;fi=47#log&quot; style=&quot;color: rgb(153 , 0 , 153) ; font-weight: 700&quot;&gt;log&lt;/a&gt;&lt;br/&gt;        &lt;a href=&quot;https://wwwin-opengrok.cisco.com/xr-dev/s?defs=self&quot; class=&quot;intelliWindow-symbol&quot; style=&quot;color: rgb(32 , 48 , 162)&quot;&gt;self&lt;/a&gt;.&lt;a class=&quot;d intelliWindow-symbol&quot; href=&quot;https://wwwin-opengrok.cisco.com/xr-dev/xref/infra/appmgr/src/_mgr/_main.py?r=&amp;amp;mo=899&amp;amp;fi=47#_loop&quot; style=&quot;color: rgb(153 , 0 , 153) ; font-weight: 700&quot;&gt;_loop&lt;/a&gt; = &lt;a class=&quot;d intelliWindow-symbol&quot; href=&quot;https://wwwin-opengrok.cisco.com/xr-dev/xref/infra/appmgr/src/_mgr/_main.py?r=&amp;amp;mo=899&amp;amp;fi=47#loop&quot; style=&quot;color: rgb(153 , 0 , 153) ; font-weight: 700&quot;&gt;loop&lt;/a&gt;&lt;br/&gt;        &lt;a href=&quot;https://wwwin-opengrok.cisco.com/xr-dev/s?defs=self&quot; class=&quot;intelliWindow-symbol&quot; style=&quot;color: rgb(32 , 48 , 162)&quot;&gt;self&lt;/a&gt;.&lt;a href=&quot;https://wwwin-opengrok.cisco.com/xr-dev/s?defs=_persist&quot; class=&quot;intelliWindow-symbol&quot; style=&quot;color: rgb(32 , 48 , 162)&quot;&gt;_persist&lt;/a&gt; = &lt;b&gt;None&lt;/b&gt;&lt;br/&gt;        &lt;a href=&quot;https://wwwin-opengrok.cisco.com/xr-dev/s?defs=self&quot; class=&quot;intelliWindow-symbol&quot; style=&quot;color: rgb(32 , 48 , 162)&quot;&gt;self&lt;/a&gt;.&lt;a href=&quot;https://wwwin-opengrok.cisco.com/xr-dev/s?defs=_appstore&quot; class=&quot;intelliWindow-symbol&quot; style=&quot;color: rgb(32 , 48 , 162)&quot;&gt;_appstore&lt;/a&gt; = &lt;b&gt;None&lt;/b&gt;&lt;br/&gt;        &lt;a href=&quot;https://wwwin-opengrok.cisco.com/xr-dev/s?defs=self&quot; class=&quot;intelliWindow-symbol&quot; style=&quot;color: rgb(32 , 48 , 162)&quot;&gt;self&lt;/a&gt;.&lt;a href=&quot;https://wwwin-opengrok.cisco.com/xr-dev/s?defs=_sourcestore&quot; class=&quot;intelliWindow-symbol&quot; style=&quot;color: rgb(32 , 48 , 162)&quot;&gt;_sourcestore&lt;/a&gt; = &lt;b&gt;None&lt;/b&gt;&lt;br/&gt;        &lt;a href=&quot;https://wwwin-opengrok.cisco.com/xr-dev/s?defs=self&quot; class=&quot;intelliWindow-symbol&quot; style=&quot;color: rgb(32 , 48 , 162)&quot;&gt;self&lt;/a&gt;.&lt;a href=&quot;https://wwwin-opengrok.cisco.com/xr-dev/s?defs=_daemonstore&quot; class=&quot;intelliWindow-symbol&quot; style=&quot;color: rgb(32 , 48 , 162)&quot;&gt;_daemonstore&lt;/a&gt; = &lt;b&gt;None&lt;/b&gt;&lt;br/&gt;        &lt;a href=&quot;https://wwwin-opengrok.cisco.com/xr-dev/s?defs=self&quot; class=&quot;intelliWindow-symbol&quot; style=&quot;color: rgb(32 , 48 , 162)&quot;&gt;self&lt;/a&gt;.&lt;a href=&quot;https://wwwin-opengrok.cisco.com/xr-dev/s?defs=_daemon_mgr&quot; class=&quot;intelliWindow-symbol&quot; style=&quot;color: rgb(32 , 48 , 162)&quot;&gt;_daemon_mgr&lt;/a&gt; = &lt;b&gt;None&lt;/b&gt;&lt;br/&gt;        &lt;a href=&quot;https://wwwin-opengrok.cisco.com/xr-dev/s?defs=self&quot; class=&quot;intelliWindow-symbol&quot; style=&quot;color: rgb(32 , 48 , 162)&quot;&gt;self&lt;/a&gt;.&lt;a href=&quot;https://wwwin-opengrok.cisco.com/xr-dev/s?defs=_standby&quot; class=&quot;intelliWindow-symbol&quot; style=&quot;color: rgb(32 , 48 , 162)&quot;&gt;_standby&lt;/a&gt; = &lt;b&gt;None&lt;/b&gt;&lt;br/&gt;        &lt;a href=&quot;https://wwwin-opengrok.cisco.com/xr-dev/s?defs=self&quot; class=&quot;intelliWindow-symbol&quot; style=&quot;color: rgb(32 , 48 , 162)&quot;&gt;self&lt;/a&gt;.&lt;a href=&quot;https://wwwin-opengrok.cisco.com/xr-dev/s?defs=_engine&quot; class=&quot;intelliWindow-symbol&quot; style=&quot;color: rgb(32 , 48 , 162)&quot;&gt;_engine&lt;/a&gt; = &lt;b&gt;None&lt;/b&gt;&lt;br/&gt;        &lt;a href=&quot;https://wwwin-opengrok.cisco.com/xr-dev/s?defs=self&quot; class=&quot;intelliWindow-symbol&quot; style=&quot;color: rgb(32 , 48 , 162)&quot;&gt;self&lt;/a&gt;.&lt;a href=&quot;https://wwwin-opengrok.cisco.com/xr-dev/s?defs=_app_config&quot; class=&quot;intelliWindow-symbol&quot; style=&quot;color: rgb(32 , 48 , 162)&quot;&gt;_app_config&lt;/a&gt; = &lt;b&gt;None&lt;/b&gt;&lt;br/&gt;        &lt;a href=&quot;https://wwwin-opengrok.cisco.com/xr-dev/s?defs=self&quot; class=&quot;intelliWindow-symbol&quot; style=&quot;color: rgb(32 , 48 , 162)&quot;&gt;self&lt;/a&gt;.&lt;a href=&quot;https://wwwin-opengrok.cisco.com/xr-dev/s?defs=_daemon_config&quot; class=&quot;intelliWindow-symbol&quot; style=&quot;color: rgb(32 , 48 , 162)&quot;&gt;_daemon_config&lt;/a&gt; = &lt;b&gt;None&lt;/b&gt;&lt;br/&gt;        &lt;a href=&quot;https://wwwin-opengrok.cisco.com/xr-dev/s?defs=self&quot; class=&quot;intelliWindow-symbol&quot; style=&quot;color: rgb(32 , 48 , 162)&quot;&gt;self&lt;/a&gt;.&lt;a href=&quot;https://wwwin-opengrok.cisco.com/xr-dev/s?defs=_oper&quot; class=&quot;intelliWindow-symbol&quot; style=&quot;color: rgb(32 , 48 , 162)&quot;&gt;_oper&lt;/a&gt; = &lt;b&gt;None&lt;/b&gt;&lt;br/&gt;        &lt;a href=&quot;https://wwwin-opengrok.cisco.com/xr-dev/s?defs=self&quot; class=&quot;intelliWindow-symbol&quot; style=&quot;color: rgb(32 , 48 , 162)&quot;&gt;self&lt;/a&gt;.&lt;a href=&quot;https://wwwin-opengrok.cisco.com/xr-dev/s?defs=_action&quot; class=&quot;intelliWindow-symbol&quot; style=&quot;color: rgb(32 , 48 , 162)&quot;&gt;_action&lt;/a&gt; = &lt;b&gt;None&lt;/b&gt;&lt;/pre&gt;" style="whiteSpace=wrap;html=1;rounded=1;arcSize=50;align=center;verticalAlign=middle;strokeWidth=1;autosize=1;spacing=4;treeFolding=1;treeMoving=1;newEdgeStyle={&quot;edgeStyle&quot;:&quot;entityRelationEdgeStyle&quot;,&quot;startArrow&quot;:&quot;none&quot;,&quot;endArrow&quot;:&quot;none&quot;,&quot;segment&quot;:10,&quot;curved&quot;:1};" vertex="1" parent="WIyWlLk6GJQsqaUBKTNV-1">
          <mxGeometry x="180" y="-110" width="340" height="220" as="geometry" />
        </mxCell>
        <mxCell id="XO1icKDs8Vp44CP4bjN7-6" value="" style="edgeStyle=entityRelationEdgeStyle;startArrow=none;endArrow=none;segment=10;curved=1;rounded=0;" edge="1" target="XO1icKDs8Vp44CP4bjN7-5" parent="WIyWlLk6GJQsqaUBKTNV-1">
          <mxGeometry relative="1" as="geometry">
            <mxPoint x="160" y="90" as="sourcePoint" />
          </mxGeometry>
        </mxCell>
        <mxCell id="XO1icKDs8Vp44CP4bjN7-21" value="" style="endArrow=classic;html=1;rounded=0;exitX=0.375;exitY=1.05;exitDx=0;exitDy=0;exitPerimeter=0;" edge="1" parent="WIyWlLk6GJQsqaUBKTNV-1">
          <mxGeometry width="50" height="50" relative="1" as="geometry">
            <mxPoint x="80" y="260" as="sourcePoint" />
            <mxPoint x="80" y="328" as="targetPoint" />
          </mxGeometry>
        </mxCell>
        <mxCell id="XO1icKDs8Vp44CP4bjN7-22" value="_init_common( Instantiate the Persist,appstore,sourcestore,daemonstore ...)&lt;br&gt;" style="rounded=1;whiteSpace=wrap;html=1;fontSize=12;glass=0;strokeWidth=1;shadow=0;" vertex="1" parent="WIyWlLk6GJQsqaUBKTNV-1">
          <mxGeometry x="-30" y="330" width="250" height="80" as="geometry" />
        </mxCell>
        <mxCell id="XO1icKDs8Vp44CP4bjN7-23" value="" style="endArrow=classic;html=1;rounded=0;exitX=0.375;exitY=1.05;exitDx=0;exitDy=0;exitPerimeter=0;" edge="1" parent="WIyWlLk6GJQsqaUBKTNV-1">
          <mxGeometry width="50" height="50" relative="1" as="geometry">
            <mxPoint x="630" y="310" as="sourcePoint" />
            <mxPoint x="630" y="378" as="targetPoint" />
          </mxGeometry>
        </mxCell>
        <mxCell id="XO1icKDs8Vp44CP4bjN7-24" value="_init_common( Instantiate the Persist,appstore,sourcestore,daemonstore ...)&lt;br&gt;" style="rounded=1;whiteSpace=wrap;html=1;fontSize=12;glass=0;strokeWidth=1;shadow=0;" vertex="1" parent="WIyWlLk6GJQsqaUBKTNV-1">
          <mxGeometry x="520" y="378" width="250" height="80" as="geometry" />
        </mxCell>
        <mxCell id="XO1icKDs8Vp44CP4bjN7-29" value="" style="endArrow=classic;html=1;rounded=0;exitX=0.375;exitY=1.05;exitDx=0;exitDy=0;exitPerimeter=0;" edge="1" parent="WIyWlLk6GJQsqaUBKTNV-1">
          <mxGeometry width="50" height="50" relative="1" as="geometry">
            <mxPoint x="580" y="40" as="sourcePoint" />
            <mxPoint x="580" y="108" as="targetPoint" />
          </mxGeometry>
        </mxCell>
        <mxCell id="XO1icKDs8Vp44CP4bjN7-30" value="_init_common( Instantiate the Persist,appstore,sourcestore,daemonstore ...)&lt;br&gt;" style="rounded=1;whiteSpace=wrap;html=1;fontSize=12;glass=0;strokeWidth=1;shadow=0;" vertex="1" parent="WIyWlLk6GJQsqaUBKTNV-1">
          <mxGeometry x="500" y="100" width="250" height="80" as="geometry" />
        </mxCell>
        <mxCell id="XO1icKDs8Vp44CP4bjN7-4" value="_init_common( Instantiate the Persist,appstore,sourcestore,daemonstore ...)&lt;br&gt;" style="rounded=1;whiteSpace=wrap;html=1;fontSize=12;glass=0;strokeWidth=1;shadow=0;" vertex="1" parent="WIyWlLk6GJQsqaUBKTNV-1">
          <mxGeometry x="-40" y="180" width="250" height="80" as="geometry" />
        </mxCell>
        <mxCell id="XO1icKDs8Vp44CP4bjN7-3" value="" style="endArrow=classic;html=1;rounded=0;exitX=0.375;exitY=1.05;exitDx=0;exitDy=0;exitPerimeter=0;" edge="1" parent="WIyWlLk6GJQsqaUBKTNV-1">
          <mxGeometry width="50" height="50" relative="1" as="geometry">
            <mxPoint x="84.5" y="114" as="sourcePoint" />
            <mxPoint x="84.5" y="182" as="targetPoint" />
            <Array as="points" />
          </mxGeometry>
        </mxCell>
      </root>
    </mxGraphModel>
  </diagram>
</mxfile>
